<svg xmlns="http://www.w3.org/2000/svg" xmlns:xlink="http://www.w3.org/1999/xlink" xmlns:inkscape="http://www.inkscape.org/namespaces/inkscape" version="1.1" width="398.037" height="85.151" viewBox="0 0 398.037 85.151">
<defs>
<clipPath id="clip_0">
<path transform="matrix(1,0,0,-1,0,85.151)" d="M0 85.151H398.037V0H0Z"/>
</clipPath>
<clipPath id="clip_1">
<path transform="matrix(1,0,0,-1,0,85.151)" d="M341.519 85.151C338.639 85.151 336.281 82.794 336.281 79.913V28.633C336.281 25.752 338.639 23.395 341.519 23.395H392.799C395.681 23.395 398.038 25.752 398.038 28.633V79.913C398.038 82.794 395.681 85.151 392.799 85.151Z"/>
</clipPath>
<clipPath id="clip_2">
<path transform="matrix(1,0,0,-1,0,85.151)" d="M0 85.151H398.037V0H0Z"/>
</clipPath>
</defs>
<g clip-path="url(#clip_0)">
<path transform="matrix(1,0,0,-1,57.9243,61.756105)" d="M0 0H-51.28C-54.161 0-56.518 2.357-56.518 5.238V56.518C-56.518 59.399-54.161 61.756-51.28 61.756H0C2.881 61.756 5.238 59.399 5.238 56.518V5.238C5.238 2.357 2.881 0 0 0" fill="#92d0aa"/>
<path transform="matrix(1,0,0,-1,130.1375,56.518)" d="M0 0V51.28C0 54.161-2.357 56.518-5.238 56.518H-56.518C-59.399 56.518-61.756 54.161-61.756 51.28V0C-61.756-2.881-59.399-5.238-56.518-5.238H-5.238C-2.357-5.238 0-2.881 0 0" fill="#92d0aa"/>
<path transform="matrix(1,0,0,-1,197.1124,56.518)" d="M0 0V51.28C0 54.161-2.357 56.518-5.238 56.518H-56.518C-59.399 56.518-61.756 54.161-61.756 51.28V0C-61.756-2.881-59.399-5.238-56.518-5.238H-5.238C-2.357-5.238 0-2.881 0 0" fill="#92d0aa"/>
<path transform="matrix(1,0,0,-1,264.0874,56.518)" d="M0 0V51.28C0 54.161-2.357 56.518-5.238 56.518H-56.518C-59.399 56.518-61.756 54.161-61.756 51.28V0C-61.756-2.881-59.399-5.238-56.518-5.238H-5.238C-2.357-5.238 0-2.881 0 0" fill="#92d0aa"/>
<path transform="matrix(1,0,0,-1,331.0623,56.518)" d="M0 0V51.28C0 54.161-2.357 56.518-5.238 56.518H-56.518C-59.399 56.518-61.756 54.161-61.756 51.28V0C-61.756-2.881-59.399-5.238-56.518-5.238H-5.238C-2.357-5.238 0-2.881 0 0" fill="#92d0aa"/>
<path transform="matrix(1,0,0,-1,398.0373,56.518)" d="M0 0V51.28C0 54.161-2.357 56.518-5.238 56.518H-56.518C-59.399 56.518-61.756 54.161-61.756 51.28V0C-61.756-2.881-59.399-5.238-56.518-5.238H-5.238C-2.357-5.238 0-2.881 0 0" fill="#92d0aa"/>
</g>
<g clip-path="url(#clip_1)">
<path transform="matrix(1,0,0,-1,418.6868,62.3546)" d="M0 0-20.211 17.968-38.905 0Z" fill="#f0e99a"/>
</g>
<g clip-path="url(#clip_2)">
<path transform="matrix(1,0,0,-1,398.0373,77.7396)" d="M0 0V4.358C0 8.435-3.335 11.77-7.411 11.77H-390.626C-394.702 11.77-398.037 8.435-398.037 4.358V0C-398.037-4.076-394.702-7.411-390.626-7.411H-7.411C-3.335-7.411 0-4.076 0 0" fill="#f0e99a"/>
<path transform="matrix(1,0,0,-1,113.0964,38.9613)" d="M0 0H-22.696V5.639H-2.228C-1.53 5.639-.964 6.205-.964 6.903V10.614C-.964 11.313-1.53 11.878-2.228 11.878H-22.696V16.775H-.743C-.045 16.775 .521 17.341 .521 18.039V21.751C.521 22.449-.045 23.015-.743 23.015H-27.674C-28.372 23.015-28.938 22.449-28.938 21.751V-4.976C-28.938-5.674-28.372-6.24-27.674-6.24H0C.698-6.24 1.264-5.674 1.264-4.976V-1.264C1.264-.566 .698 0 0 0" fill="#ffffff"/>
<path transform="matrix(1,0,0,-1,247.158,15.946602)" d="M0 0H-3.714C-4.412 0-4.978-.566-4.978-1.264V-23.015H-22.921V-1.264C-22.921-.566-23.487 0-24.185 0H-27.897C-28.595 0-29.161-.566-29.161-1.264V-27.99C-29.161-28.688-28.595-29.254-27.897-29.254H0C.698-29.254 1.264-28.688 1.264-27.99V-1.264C1.264-.566 .698 0 0 0" fill="#ffffff"/>
<path transform="matrix(1,0,0,-1,50.4316,15.946602)" d="M0 0H-36.389C-37.087 0-37.653-.566-37.653-1.264V-27.99C-37.653-28.688-37.087-29.254-36.389-29.254H-31.933C-31.235-29.254-30.669-28.688-30.669-27.99V-5.497H-19.087V-27.99C-19.087-28.688-18.521-29.254-17.823-29.254H-13.367C-12.669-29.254-12.103-28.688-12.103-27.99V-5.497H-5.625V-27.99C-5.625-28.688-5.059-29.254-4.361-29.254H.094C.792-29.254 1.358-28.688 1.358-27.99V-1.264C1.358-.566 .698 0 0 0" fill="#ffffff"/>
<path transform="matrix(1,0,0,-1,318.33,15.946602)" d="M0 0H-36.387C-37.085 0-37.651-.566-37.651-1.264V-27.99C-37.651-28.688-37.085-29.254-36.387-29.254H-31.932C-31.234-29.254-30.668-28.688-30.668-27.99V-5.497H-19.087V-27.99C-19.087-28.688-18.521-29.254-17.823-29.254H-13.366C-12.668-29.254-12.102-28.688-12.102-27.99V-5.497H-5.624V-27.99C-5.624-28.688-5.058-29.254-4.36-29.254H.096C.794-29.254 1.36-28.688 1.36-27.99V-1.264C1.36-.566 .698 0 0 0" fill="#ffffff"/>
<path transform="matrix(1,0,0,-1,388.0594,20.501404)" d="M0 0C-.602 2.278-1.376 4.503-3.585 4.503-4.566 4.503-5.564 4.039-6.946 3.397L-7.943 2.939C-13.264 .546-16.946-3.011-20.878-7.902-24.967-2.643-29.121 .821-33.858 2.94-34.344 3.157-34.776 3.36-35.161 3.54-36.469 4.151-37.332 4.555-38.182 4.555-40.073 4.555-40.744 2.794-41.76 .128-41.889-.212-41.866-.591-41.696-.912-41.526-1.234-41.227-1.466-40.873-1.551-31.156-3.881-22.242-12.307-24.01-23.902-24.065-24.266-23.959-24.636-23.719-24.916-23.478-25.195-23.129-25.356-22.76-25.356H-19.039C-18.67-25.356-18.321-25.195-18.081-24.917-17.842-24.638-17.734-24.268-17.789-23.904-19.088-15.289-13.621-4.528-.933-1.554-.601-1.475-.315-1.266-.139-.974 .038-.681 .087-.33 0 0" fill="#ffffff"/>
<path transform="matrix(1,0,0,-1,174.7222,27.027703)" d="M0 0C-.001-.017-.001-.033-.001-.049H-17.001V4.838H-.238C.106 3.878 .028 .999 0 0M-.459-6.295H4.953C5.651-6.295 6.217-5.729 6.217-5.031V-1.319C6.217-1.279 6.214-1.238 6.211-1.198V9.818C6.211 10.516 5.645 11.082 4.947 11.082H-22.724C-23.422 11.082-23.988 10.516-23.988 9.818V-16.902C-23.988-17.6-23.422-18.166-22.724-18.166H-18.265C-17.567-18.166-17.001-17.6-17.001-16.902V-6.295L-16.583-6.294C-9.718-6.468-4.41-10.046 .118-17.555 .347-17.934 .758-18.166 1.2-18.166H5.748C6.187-18.166 6.593-17.939 6.824-17.566 7.053-17.194 7.075-16.728 6.879-16.337 5.017-12.618 2.216-8.79-.459-6.295" fill="#ffffff"/>
<path transform="matrix(1,0,0,-1,22.0872,72.8188)" d="M0 0C.687 0 .891-.53 .891-.981 .891-1.443 .676-1.962 0-1.962H-.35V-5.176H-2.605V1.703C-2.605 2.436-2.075 2.819-1.478 2.819-.88 2.819-.35 2.436-.35 1.703V0ZM-5.954-.609C-5.954-.067-6.304 .282-6.856 .282-7.42 .282-7.77-.067-7.77-.609V-1.342C-7.77-1.872-7.42-2.244-6.856-2.244-6.304-2.244-5.954-1.872-5.954-1.342ZM-.914-6.044C-.248-6.044 .011-6.45 .011-6.901 .011-7.363-.259-7.769-.914-7.769H-7.826C-9.089-7.769-9.427-7.329-9.427-6.123V-5.243C-9.427-4.544-8.897-4.194-8.266-4.194-7.634-4.194-7.138-4.555-7.138-5.243V-5.818C-7.138-5.999-7.082-6.044-6.913-6.044ZM-9.822-.485C-9.822-.225-9.765 .012-9.664 .214-10.171 .237-10.453 .564-10.453 1.026-10.453 1.5-10.171 1.827-9.619 1.827H-8.006C-7.973 2.47-7.533 2.853-6.856 2.853-6.18 2.853-5.751 2.47-5.717 1.827H-4.104C-3.552 1.827-3.259 1.5-3.259 1.026-3.259 .564-3.552 .237-4.06 .214-3.958 .012-3.902-.225-3.902-.485V-1.522C-3.902-3.022-5.041-3.89-6.856-3.89-8.671-3.89-9.822-3.022-9.822-1.522Z" fill="#92d0aa"/>
<path transform="matrix(1,0,0,-1,30.821,75.852008)" d="M0 0V-.879H2.041C3.406-.879 3.654-1.274 3.654-2.582V-4.736H1.398V-2.875C1.398-2.695 1.331-2.627 1.15-2.627H-5.04C-5.649-2.627-5.987-2.255-5.987-1.748-5.987-1.24-5.649-.879-5.04-.879H-2.3V0H-5.48C-6.146 0-6.427 .451-6.427 .925-6.427 1.387-6.157 1.85-5.48 1.85H.925C1.117 2.255 1.252 2.763 1.252 3.36V3.654C1.252 3.856 1.173 3.902 .97 3.902H-4.916C-5.649 3.902-5.954 4.285-5.954 4.804-5.954 5.289-5.661 5.695-4.916 5.695H2.075C3.09 5.695 3.484 5.255 3.484 4.454V3.778C3.484 2.909 3.327 2.278 3.124 1.85H3.18C3.856 1.85 4.127 1.387 4.127 .925 4.127 .451 3.845 0 3.18 0Z" fill="#92d0aa"/>
<path transform="matrix(1,0,0,-1,47.4153,70.9692)" d="M0 0V-9.619H-1.974V0C-1.974 .586-1.579 .97-.981 .97-.384 .97 0 .586 0 0M-7.161-1.804C-7.161-1.274-7.386-1.004-7.702-1.015-8.018-1.026-8.232-1.274-8.232-1.804V-6.8C-8.232-7.33-8.018-7.6-7.702-7.6-7.386-7.6-7.161-7.33-7.161-6.8ZM-2.538 .022V-9.619H-4.455V-5.108H-5.221V-6.518C-5.221-8.288-6.056-9.348-7.69-9.348-9.326-9.348-10.171-8.288-10.171-6.518V-2.098C-10.171-.338-9.337 .733-7.702 .733-6.056 .733-5.221-.327-5.221-2.098V-3.236H-4.455V.022C-4.455 .586-4.093 .97-3.496 .97-2.898 .97-2.538 .586-2.538 .022" fill="#92d0aa"/>
<path transform="matrix(1,0,0,-1,59.8591,71.1157)" d="M0 0V-9.472H-2.255V-4.037H-3.552C-4.172-4.037-4.556-3.654-4.556-3.079-4.556-2.515-4.184-2.109-3.552-2.109H-2.255V0C-2.255 .733-1.725 1.116-1.127 1.116-.53 1.116 0 .733 0 0M-3.292-8.83H-5.458C-5.243-7.127-5.503-6.067-6.394-5.458-6.878-6.913-7.668-7.961-8.739-8.649-9.325-9.055-10.059-8.965-10.363-8.57-10.667-8.221-10.69-7.566-10.194-7.206-8.502-5.999-8.04-4.341-8.04-1.195V-.316C-8.04 .406-7.51 .778-6.912 .778-6.337 .778-5.807 .372-5.807-.316V-1.184C-5.807-1.996-5.853-2.74-5.942-3.428-3.958-4.184-3.09-5.706-3.292-8.83" fill="#92d0aa"/>
<path transform="matrix(1,0,0,-1,69.4036,72.3452)" d="M0 0C0-.315 .237-.541 .666-.541H4.533C4.961-.541 5.21-.315 5.21 0V.113C5.21 .429 4.961 .666 4.533 .666H.666C.237 .666 0 .429 0 .113ZM6.585-6.518C7.273-6.518 7.533-6.923 7.533-7.375 7.533-7.837 7.262-8.243 6.585-8.243H-.496C-1.77-8.243-2.108-7.826-2.108-6.653V-5.942C-2.108-5.198-1.567-4.916-.936-4.916-.304-4.916 .203-5.209 .203-5.942V-6.258C.203-6.483 .259-6.518 .507-6.518ZM6.946-2.729C7.612-2.729 7.882-3.168 7.882-3.631 7.882-4.104 7.6-4.521 6.946-4.521H-1.736C-2.391-4.521-2.672-4.104-2.672-3.631-2.672-3.168-2.402-2.729-1.736-2.729H1.455V-2.108H.079C-1.455-2.108-2.312-1.24-2.312 .012V.113C-2.312 1.365-1.455 2.233 .079 2.233H5.12C6.653 2.233 7.521 1.365 7.521 .113V.012C7.521-1.24 6.653-2.108 5.12-2.108H3.755V-2.729Z" fill="#92d0aa"/>
<path transform="matrix(1,0,0,-1,94.1487,73.946308)" d="M0 0C.687 0 .891-.53 .891-.981 .891-1.443 .676-1.962 0-1.962H-.406V-6.642H-2.661V2.831C-2.661 3.563-2.131 3.947-1.534 3.947-.936 3.947-.406 3.563-.406 2.831V0ZM-5.932 .868C-5.932 1.567-6.394 1.939-6.89 1.928-7.397 1.917-7.849 1.556-7.849 .868V-3.518C-7.849-4.24-7.397-4.589-6.89-4.589-6.394-4.589-5.932-4.24-5.932-3.518ZM-3.767 .755V-3.417C-3.767-5.368-5.063-6.427-6.878-6.427-8.706-6.427-10.014-5.368-10.014-3.417V.755C-10.014 2.695-8.717 3.766-6.89 3.766-5.063 3.766-3.767 2.707-3.767 .755" fill="#92d0aa"/>
<path transform="matrix(1,0,0,-1,99.1619,78.874)" d="M0 0C0-.146 .045-.237 .271-.237H5.142V.192C5.142 .316 5.085 .417 4.86 .417H.271C.045 .417 0 .316 0 .192ZM-.801-1.714C-2.007-1.714-2.255-1.319-2.255-.248V.44C-2.255 1.511-2.007 1.895-.801 1.895H5.931C7.138 1.895 7.386 1.511 7.386 .44V-1.714ZM-.699 4.296C-1.759 4.296-2.312 4.849-2.312 5.672V5.773C-2.312 6.608-1.771 7.07-.699 7.07H4.927V7.228C4.927 7.363 4.882 7.431 4.702 7.431H-1.545C-1.974 7.431-2.21 7.758-2.21 8.085-2.21 8.401-1.996 8.75-1.545 8.75H5.931C6.935 8.75 7.262 8.367 7.262 7.679V5.965H.36C.18 5.965 .112 5.909 .112 5.785 .112 5.661 .18 5.616 .36 5.616H6.867C7.341 5.616 7.521 5.277 7.521 4.939 7.521 4.635 7.341 4.296 6.867 4.296ZM6.991 3.913C7.577 3.913 7.848 3.586 7.848 3.124 7.848 2.65 7.566 2.346 6.991 2.346H-1.85C-2.425 2.346-2.707 2.65-2.707 3.124-2.707 3.586-2.436 3.913-1.85 3.913Z" fill="#92d0aa"/>
<path transform="matrix(1,0,0,-1,119.3752,73.946308)" d="M0 0C.687 0 .891-.53 .891-.981 .891-1.443 .676-1.962 0-1.962H-.406V-6.642H-2.661V2.831C-2.661 3.563-2.131 3.947-1.534 3.947-.936 3.947-.406 3.563-.406 2.831V0ZM-4.116-4.308C-3.462-4.308-3.27-4.826-3.27-5.255-3.27-5.694-3.473-6.19-4.116-6.19H-8.221C-9.687-6.19-9.957-5.841-9.957-4.432V1.804C-9.957 3.214-9.687 3.552-8.221 3.552H-4.657C-4.003 3.552-3.789 3.033-3.789 2.605-3.789 2.165-4.015 1.646-4.657 1.646H-7.397C-7.6 1.646-7.69 1.579-7.69 1.319V-3.98C-7.69-4.24-7.6-4.308-7.397-4.308Z" fill="#92d0aa"/>
<path transform="matrix(1,0,0,-1,129.53,78.5805)" d="M0 0C0 .158-.056 .259-.282 .259H-4.871C-5.097 .259-5.142 .158-5.142 0V-.226C-5.142-.406-5.097-.497-4.871-.497H0ZM-5.176 6.518C-5.176 6.281-5.018 6.123-4.668 6.123H-.474C-.135 6.123 .034 6.281 .034 6.518V6.574C.034 6.811-.135 6.98-.474 6.98H-4.668C-5.018 6.98-5.176 6.811-5.176 6.574ZM-5.254 4.634C-6.698 4.634-7.476 5.356-7.476 6.518V6.585C-7.476 7.747-6.698 8.468-5.254 8.468H.102C1.545 8.468 2.334 7.747 2.334 6.585V6.518C2.334 5.356 1.545 4.634 .102 4.634ZM-1.421 2.39V1.77H.722C1.996 1.77 2.244 1.387 2.244 .214V-2.007H-5.875C-7.149-2.007-7.397-1.613-7.397-.44V.214C-7.397 1.387-7.149 1.77-5.875 1.77H-3.721V2.39H-6.958C-7.566 2.39-7.848 2.751-7.848 3.225-7.848 3.687-7.578 4.07-6.958 4.07H1.815C2.436 4.07 2.707 3.687 2.707 3.225 2.707 2.751 2.424 2.39 1.815 2.39Z" fill="#92d0aa"/>
<path transform="matrix(1,0,0,-1,149.0994,72.8188)" d="M0 0C.687 0 .891-.53 .891-.981 .891-1.443 .676-1.962 0-1.962H-.35V-5.176H-2.605V1.703C-2.605 2.436-2.075 2.819-1.478 2.819-.88 2.819-.35 2.436-.35 1.703V0ZM-5.954-.609C-5.954-.067-6.304 .282-6.856 .282-7.42 .282-7.77-.067-7.77-.609V-1.342C-7.77-1.872-7.42-2.244-6.856-2.244-6.304-2.244-5.954-1.872-5.954-1.342ZM-.914-6.044C-.248-6.044 .011-6.45 .011-6.901 .011-7.363-.259-7.769-.914-7.769H-7.826C-9.089-7.769-9.427-7.329-9.427-6.123V-5.243C-9.427-4.544-8.897-4.194-8.266-4.194-7.634-4.194-7.138-4.555-7.138-5.243V-5.818C-7.138-5.999-7.082-6.044-6.913-6.044ZM-9.822-.485C-9.822-.225-9.766 .012-9.664 .214-10.171 .237-10.453 .564-10.453 1.026-10.453 1.5-10.171 1.827-9.619 1.827H-8.006C-7.973 2.47-7.533 2.853-6.856 2.853-6.18 2.853-5.751 2.47-5.717 1.827H-4.104C-3.552 1.827-3.259 1.5-3.259 1.026-3.259 .564-3.552 .237-4.06 .214-3.958 .012-3.902-.225-3.902-.485V-1.522C-3.902-3.022-5.041-3.89-6.856-3.89-8.671-3.89-9.822-3.022-9.822-1.522Z" fill="#92d0aa"/>
<path transform="matrix(1,0,0,-1,157.8333,75.852008)" d="M0 0V-.879H2.041C3.406-.879 3.654-1.274 3.654-2.582V-4.736H1.398V-2.875C1.398-2.695 1.331-2.627 1.15-2.627H-5.04C-5.649-2.627-5.987-2.255-5.987-1.748-5.987-1.24-5.649-.879-5.04-.879H-2.3V0H-5.48C-6.146 0-6.427 .451-6.427 .925-6.427 1.387-6.157 1.85-5.48 1.85H.925C1.117 2.255 1.252 2.763 1.252 3.36V3.654C1.252 3.856 1.173 3.902 .97 3.902H-4.916C-5.649 3.902-5.954 4.285-5.954 4.804-5.954 5.289-5.661 5.695-4.916 5.695H2.075C3.09 5.695 3.484 5.255 3.484 4.454V3.778C3.484 2.909 3.327 2.278 3.124 1.85H3.18C3.857 1.85 4.127 1.387 4.127 .925 4.127 .451 3.845 0 3.18 0Z" fill="#92d0aa"/>
<path transform="matrix(1,0,0,-1,174.4275,70.9692)" d="M0 0V-9.619H-1.974V0C-1.974 .586-1.579 .97-.981 .97-.384 .97 0 .586 0 0M-7.161-1.804C-7.161-1.274-7.386-1.004-7.702-1.015-8.018-1.026-8.232-1.274-8.232-1.804V-6.8C-8.232-7.33-8.018-7.6-7.702-7.6-7.386-7.6-7.161-7.33-7.161-6.8ZM-2.538 .022V-9.619H-4.454V-5.108H-5.221V-6.518C-5.221-8.288-6.056-9.348-7.69-9.348-9.326-9.348-10.171-8.288-10.171-6.518V-2.098C-10.171-.338-9.337 .733-7.702 .733-6.056 .733-5.221-.327-5.221-2.098V-3.236H-4.454V.022C-4.454 .586-4.094 .97-3.496 .97-2.898 .97-2.538 .586-2.538 .022" fill="#92d0aa"/>
<path transform="matrix(1,0,0,-1,186.8713,71.1157)" d="M0 0V-9.472H-2.255V-4.037H-3.552C-4.172-4.037-4.556-3.654-4.556-3.079-4.556-2.515-4.184-2.109-3.552-2.109H-2.255V0C-2.255 .733-1.725 1.116-1.127 1.116-.53 1.116 0 .733 0 0M-3.292-8.83H-5.458C-5.243-7.127-5.503-6.067-6.394-5.458-6.878-6.913-7.668-7.961-8.739-8.649-9.325-9.055-10.058-8.965-10.363-8.57-10.667-8.221-10.69-7.566-10.194-7.206-8.502-5.999-8.04-4.341-8.04-1.195V-.316C-8.04 .406-7.51 .778-6.912 .778-6.337 .778-5.807 .372-5.807-.316V-1.184C-5.807-1.996-5.853-2.74-5.942-3.428-3.958-4.184-3.09-5.706-3.292-8.83" fill="#92d0aa"/>
<path transform="matrix(1,0,0,-1,196.4158,72.3452)" d="M0 0C0-.315 .237-.541 .666-.541H4.533C4.961-.541 5.21-.315 5.21 0V.113C5.21 .429 4.961 .666 4.533 .666H.666C.237 .666 0 .429 0 .113ZM6.585-6.518C7.273-6.518 7.533-6.923 7.533-7.375 7.533-7.837 7.262-8.243 6.585-8.243H-.496C-1.771-8.243-2.108-7.826-2.108-6.653V-5.942C-2.108-5.198-1.567-4.916-.936-4.916-.304-4.916 .203-5.209 .203-5.942V-6.258C.203-6.483 .259-6.518 .507-6.518ZM6.946-2.729C7.611-2.729 7.882-3.168 7.882-3.631 7.882-4.104 7.6-4.521 6.946-4.521H-1.736C-2.391-4.521-2.672-4.104-2.672-3.631-2.672-3.168-2.402-2.729-1.736-2.729H1.455V-2.108H.079C-1.455-2.108-2.312-1.24-2.312 .012V.113C-2.312 1.365-1.455 2.233 .079 2.233H5.12C6.653 2.233 7.521 1.365 7.521 .113V.012C7.521-1.24 6.653-2.108 5.12-2.108H3.755V-2.729Z" fill="#92d0aa"/>
<path transform="matrix(1,0,0,-1,221.1609,73.946308)" d="M0 0C.687 0 .891-.53 .891-.981 .891-1.443 .676-1.962 0-1.962H-.406V-6.642H-2.661V2.831C-2.661 3.563-2.131 3.947-1.534 3.947-.936 3.947-.406 3.563-.406 2.831V0ZM-5.932 .868C-5.932 1.567-6.394 1.939-6.89 1.928-7.397 1.917-7.849 1.556-7.849 .868V-3.518C-7.849-4.24-7.397-4.589-6.89-4.589-6.394-4.589-5.932-4.24-5.932-3.518ZM-3.767 .755V-3.417C-3.767-5.368-5.063-6.427-6.879-6.427-8.706-6.427-10.014-5.368-10.014-3.417V.755C-10.014 2.695-8.717 3.766-6.89 3.766-5.063 3.766-3.767 2.707-3.767 .755" fill="#92d0aa"/>
<path transform="matrix(1,0,0,-1,226.1736,78.874)" d="M0 0C0-.146 .045-.237 .271-.237H5.142V.192C5.142 .316 5.086 .417 4.86 .417H.271C.045 .417 0 .316 0 .192ZM-.8-1.714C-2.007-1.714-2.255-1.319-2.255-.248V.44C-2.255 1.511-2.007 1.895-.8 1.895H5.932C7.138 1.895 7.386 1.511 7.386 .44V-1.714ZM-.699 4.296C-1.759 4.296-2.312 4.849-2.312 5.672V5.773C-2.312 6.608-1.77 7.07-.699 7.07H4.928V7.228C4.928 7.363 4.883 7.431 4.703 7.431H-1.544C-1.973 7.431-2.21 7.758-2.21 8.085-2.21 8.401-1.996 8.75-1.544 8.75H5.932C6.935 8.75 7.262 8.367 7.262 7.679V5.965H.361C.181 5.965 .113 5.909 .113 5.785 .113 5.661 .181 5.616 .361 5.616H6.868C7.341 5.616 7.522 5.277 7.522 4.939 7.522 4.635 7.341 4.296 6.868 4.296ZM6.992 3.913C7.579 3.913 7.849 3.586 7.849 3.124 7.849 2.65 7.567 2.346 6.992 2.346H-1.849C-2.424 2.346-2.706 2.65-2.706 3.124-2.706 3.586-2.436 3.913-1.849 3.913Z" fill="#92d0aa"/>
<path transform="matrix(1,0,0,-1,246.3879,73.946308)" d="M0 0C.687 0 .891-.53 .891-.981 .891-1.443 .677-1.962 0-1.962H-.406V-6.642H-2.661V2.831C-2.661 3.563-2.132 3.947-1.534 3.947-.937 3.947-.406 3.563-.406 2.831V0ZM-4.116-4.308C-3.462-4.308-3.271-4.826-3.271-5.255-3.271-5.694-3.474-6.19-4.116-6.19H-8.221C-9.687-6.19-9.957-5.841-9.957-4.432V1.804C-9.957 3.214-9.687 3.552-8.221 3.552H-4.657C-4.003 3.552-3.789 3.033-3.789 2.605-3.789 2.165-4.015 1.646-4.657 1.646H-7.397C-7.601 1.646-7.69 1.579-7.69 1.319V-3.98C-7.69-4.24-7.601-4.308-7.397-4.308Z" fill="#92d0aa"/>
<path transform="matrix(1,0,0,-1,256.5432,78.5805)" d="M0 0C0 .158-.057 .259-.282 .259H-4.871C-5.097 .259-5.142 .158-5.142 0V-.226C-5.142-.406-5.097-.497-4.871-.497H0ZM-5.176 6.518C-5.176 6.281-5.018 6.123-4.668 6.123H-.474C-.135 6.123 .034 6.281 .034 6.518V6.574C.034 6.811-.135 6.98-.474 6.98H-4.668C-5.018 6.98-5.176 6.811-5.176 6.574ZM-5.255 4.634C-6.698 4.634-7.476 5.356-7.476 6.518V6.585C-7.476 7.747-6.698 8.468-5.255 8.468H.102C1.545 8.468 2.334 7.747 2.334 6.585V6.518C2.334 5.356 1.545 4.634 .102 4.634ZM-1.421 2.39V1.77H.722C1.996 1.77 2.244 1.387 2.244 .214V-2.007H-5.875C-7.149-2.007-7.397-1.613-7.397-.44V.214C-7.397 1.387-7.149 1.77-5.875 1.77H-3.721V2.39H-6.957C-7.566 2.39-7.849 2.751-7.849 3.225-7.849 3.687-7.577 4.07-6.957 4.07H1.815C2.436 4.07 2.706 3.687 2.706 3.225 2.706 2.751 2.425 2.39 1.815 2.39Z" fill="#92d0aa"/>
<path transform="matrix(1,0,0,-1,276.1116,72.8188)" d="M0 0C.688 0 .892-.53 .892-.981 .892-1.443 .677-1.962 0-1.962H-.35V-5.176H-2.604V1.703C-2.604 2.436-2.074 2.819-1.477 2.819-.879 2.819-.35 2.436-.35 1.703V0ZM-5.953-.609C-5.953-.067-6.303 .282-6.855 .282-7.419 .282-7.769-.067-7.769-.609V-1.342C-7.769-1.872-7.419-2.244-6.855-2.244-6.303-2.244-5.953-1.872-5.953-1.342ZM-.913-6.044C-.248-6.044 .012-6.45 .012-6.901 .012-7.363-.259-7.769-.913-7.769H-7.825C-9.088-7.769-9.427-7.329-9.427-6.123V-5.243C-9.427-4.544-8.896-4.194-8.266-4.194-7.634-4.194-7.138-4.555-7.138-5.243V-5.818C-7.138-5.999-7.081-6.044-6.912-6.044ZM-9.821-.485C-9.821-.225-9.765 .012-9.663 .214-10.171 .237-10.453 .564-10.453 1.026-10.453 1.5-10.171 1.827-9.618 1.827H-8.006C-7.972 2.47-7.532 2.853-6.855 2.853-6.179 2.853-5.751 2.47-5.717 1.827H-4.104C-3.552 1.827-3.259 1.5-3.259 1.026-3.259 .564-3.552 .237-4.06 .214-3.958 .012-3.901-.225-3.901-.485V-1.522C-3.901-3.022-5.04-3.89-6.855-3.89-8.671-3.89-9.821-3.022-9.821-1.522Z" fill="#92d0aa"/>
<path transform="matrix(1,0,0,-1,284.8459,75.852008)" d="M0 0V-.879H2.041C3.405-.879 3.653-1.274 3.653-2.582V-4.736H1.398V-2.875C1.398-2.695 1.331-2.627 1.15-2.627H-5.04C-5.649-2.627-5.987-2.255-5.987-1.748-5.987-1.24-5.649-.879-5.04-.879H-2.3V0H-5.48C-6.146 0-6.427 .451-6.427 .925-6.427 1.387-6.156 1.85-5.48 1.85H.925C1.116 2.255 1.252 2.763 1.252 3.36V3.654C1.252 3.856 1.173 3.902 .97 3.902H-4.916C-5.649 3.902-5.954 4.285-5.954 4.804-5.954 5.289-5.66 5.695-4.916 5.695H2.075C3.09 5.695 3.484 5.255 3.484 4.454V3.778C3.484 2.909 3.327 2.278 3.124 1.85H3.18C3.856 1.85 4.127 1.387 4.127 .925 4.127 .451 3.846 0 3.18 0Z" fill="#92d0aa"/>
<path transform="matrix(1,0,0,-1,301.4397,70.9692)" d="M0 0V-9.619H-1.973V0C-1.973 .586-1.578 .97-.98 .97-.383 .97 0 .586 0 0M-7.16-1.804C-7.16-1.274-7.386-1.004-7.701-1.015-8.018-1.026-8.231-1.274-8.231-1.804V-6.8C-8.231-7.33-8.018-7.6-7.701-7.6-7.386-7.6-7.16-7.33-7.16-6.8ZM-2.537 .022V-9.619H-4.454V-5.108H-5.221V-6.518C-5.221-8.288-6.055-9.348-7.69-9.348-9.325-9.348-10.171-8.288-10.171-6.518V-2.098C-10.171-.338-9.337 .733-7.701 .733-6.055 .733-5.221-.327-5.221-2.098V-3.236H-4.454V.022C-4.454 .586-4.093 .97-3.495 .97-2.897 .97-2.537 .586-2.537 .022" fill="#92d0aa"/>
<path transform="matrix(1,0,0,-1,313.884,71.1157)" d="M0 0V-9.472H-2.255V-4.037H-3.552C-4.172-4.037-4.556-3.654-4.556-3.079-4.556-2.515-4.184-2.109-3.552-2.109H-2.255V0C-2.255 .733-1.726 1.116-1.128 1.116-.53 1.116 0 .733 0 0M-3.293-8.83H-5.458C-5.243-7.127-5.503-6.067-6.394-5.458-6.879-6.913-7.668-7.961-8.739-8.649-9.325-9.055-10.059-8.965-10.363-8.57-10.667-8.221-10.689-7.566-10.193-7.206-8.502-5.999-8.04-4.341-8.04-1.195V-.316C-8.04 .406-7.51 .778-6.912 .778-6.337 .778-5.808 .372-5.808-.316V-1.184C-5.808-1.996-5.853-2.74-5.942-3.428-3.958-4.184-3.09-5.706-3.293-8.83" fill="#92d0aa"/>
<path transform="matrix(1,0,0,-1,323.429,72.3452)" d="M0 0C0-.315 .237-.541 .665-.541H4.533C4.962-.541 5.21-.315 5.21 0V.113C5.21 .429 4.962 .666 4.533 .666H.665C.237 .666 0 .429 0 .113ZM6.585-6.518C7.273-6.518 7.532-6.923 7.532-7.375 7.532-7.837 7.262-8.243 6.585-8.243H-.496C-1.771-8.243-2.108-7.826-2.108-6.653V-5.942C-2.108-5.198-1.567-4.916-.936-4.916-.305-4.916 .203-5.209 .203-5.942V-6.258C.203-6.483 .26-6.518 .508-6.518ZM6.946-2.729C7.611-2.729 7.882-3.168 7.882-3.631 7.882-4.104 7.601-4.521 6.946-4.521H-1.736C-2.391-4.521-2.672-4.104-2.672-3.631-2.672-3.168-2.401-2.729-1.736-2.729H1.455V-2.108H.079C-1.454-2.108-2.312-1.24-2.312 .012V.113C-2.312 1.365-1.454 2.233 .079 2.233H5.119C6.653 2.233 7.521 1.365 7.521 .113V.012C7.521-1.24 6.653-2.108 5.119-2.108H3.755V-2.729Z" fill="#92d0aa"/>
<path transform="matrix(1,0,0,-1,348.1731,73.946308)" d="M0 0C.688 0 .892-.53 .892-.981 .892-1.443 .677-1.962 0-1.962H-.405V-6.642H-2.661V2.831C-2.661 3.563-2.131 3.947-1.533 3.947-.936 3.947-.405 3.563-.405 2.831V0ZM-5.931 .868C-5.931 1.567-6.394 1.939-6.89 1.928-7.396 1.917-7.848 1.556-7.848 .868V-3.518C-7.848-4.24-7.396-4.589-6.89-4.589-6.394-4.589-5.931-4.24-5.931-3.518ZM-3.766 .755V-3.417C-3.766-5.368-5.062-6.427-6.878-6.427-8.705-6.427-10.013-5.368-10.013-3.417V.755C-10.013 2.695-8.716 3.766-6.89 3.766-5.062 3.766-3.766 2.707-3.766 .755" fill="#92d0aa"/>
<path transform="matrix(1,0,0,-1,353.1868,78.874)" d="M0 0C0-.146 .045-.237 .271-.237H5.142V.192C5.142 .316 5.085 .417 4.859 .417H.271C.045 .417 0 .316 0 .192ZM-.801-1.714C-2.008-1.714-2.256-1.319-2.256-.248V.44C-2.256 1.511-2.008 1.895-.801 1.895H5.931C7.138 1.895 7.386 1.511 7.386 .44V-1.714ZM-.699 4.296C-1.76 4.296-2.312 4.849-2.312 5.672V5.773C-2.312 6.608-1.771 7.07-.699 7.07H4.928V7.228C4.928 7.363 4.883 7.431 4.702 7.431H-1.545C-1.974 7.431-2.21 7.758-2.21 8.085-2.21 8.401-1.996 8.75-1.545 8.75H5.931C6.935 8.75 7.262 8.367 7.262 7.679V5.965H.36C.18 5.965 .112 5.909 .112 5.785 .112 5.661 .18 5.616 .36 5.616H6.867C7.341 5.616 7.521 5.277 7.521 4.939 7.521 4.635 7.341 4.296 6.867 4.296ZM6.991 3.913C7.577 3.913 7.848 3.586 7.848 3.124 7.848 2.65 7.566 2.346 6.991 2.346H-1.85C-2.425 2.346-2.707 2.65-2.707 3.124-2.707 3.586-2.436 3.913-1.85 3.913Z" fill="#92d0aa"/>
<path transform="matrix(1,0,0,-1,373.3997,73.946308)" d="M0 0C.688 0 .892-.53 .892-.981 .892-1.443 .677-1.962 0-1.962H-.405V-6.642H-2.661V2.831C-2.661 3.563-2.131 3.947-1.533 3.947-.936 3.947-.405 3.563-.405 2.831V0ZM-4.115-4.308C-3.462-4.308-3.27-4.826-3.27-5.255-3.27-5.694-3.473-6.19-4.115-6.19H-8.22C-9.686-6.19-9.957-5.841-9.957-4.432V1.804C-9.957 3.214-9.686 3.552-8.22 3.552H-4.657C-4.003 3.552-3.788 3.033-3.788 2.605-3.788 2.165-4.014 1.646-4.657 1.646H-7.396C-7.6 1.646-7.69 1.579-7.69 1.319V-3.98C-7.69-4.24-7.6-4.308-7.396-4.308Z" fill="#92d0aa"/>
<path transform="matrix(1,0,0,-1,383.5549,78.5805)" d="M0 0C0 .158-.057 .259-.282 .259H-4.871C-5.097 .259-5.142 .158-5.142 0V-.226C-5.142-.406-5.097-.497-4.871-.497H0ZM-5.176 6.518C-5.176 6.281-5.018 6.123-4.668 6.123H-.474C-.135 6.123 .034 6.281 .034 6.518V6.574C.034 6.811-.135 6.98-.474 6.98H-4.668C-5.018 6.98-5.176 6.811-5.176 6.574ZM-5.255 4.634C-6.698 4.634-7.476 5.356-7.476 6.518V6.585C-7.476 7.747-6.698 8.468-5.255 8.468H.102C1.545 8.468 2.334 7.747 2.334 6.585V6.518C2.334 5.356 1.545 4.634 .102 4.634ZM-1.421 2.39V1.77H.722C1.996 1.77 2.244 1.387 2.244 .214V-2.007H-5.875C-7.149-2.007-7.397-1.613-7.397-.44V.214C-7.397 1.387-7.149 1.77-5.875 1.77H-3.721V2.39H-6.957C-7.566 2.39-7.849 2.751-7.849 3.225-7.849 3.687-7.577 4.07-6.957 4.07H1.815C2.436 4.07 2.706 3.687 2.706 3.225 2.706 2.751 2.425 2.39 1.815 2.39Z" fill="#92d0aa"/>
</g>
</svg>
